<?xml version="1.0" encoding="UTF-8" standalone="no"?>
<svg
   xmlns:dc="http://purl.org/dc/elements/1.1/"
   xmlns:cc="http://creativecommons.org/ns#"
   xmlns:rdf="http://www.w3.org/1999/02/22-rdf-syntax-ns#"
   xmlns:svg="http://www.w3.org/2000/svg"
   xmlns="http://www.w3.org/2000/svg"
   xmlns:sodipodi="http://sodipodi.sourceforge.net/DTD/sodipodi-0.dtd"
   xmlns:inkscape="http://www.inkscape.org/namespaces/inkscape"
   viewBox="0 0 512 512.00001"
   id="svg2"
   version="1.1"
   inkscape:version="0.91pre4 r13712"
   sodipodi:docname="js-logo.svg"
   width="512"
   height="512">
  <metadata
     id="metadata30">
    <rdf:RDF>
      <cc:Work
         rdf:about="">
        <dc:format>image/svg+xml</dc:format>
        <dc:type
           rdf:resource="http://purl.org/dc/dcmitype/StillImage" />
        <dc:title>HTML5 Logo</dc:title>
      </cc:Work>
    </rdf:RDF>
  </metadata>
  <defs
     id="defs28">
    <clipPath
       id="clipPath4390"
       clipPathUnits="userSpaceOnUse">
      <path
         inkscape:connector-curvature="0"
         id="path4392"
         d="m 0,141.732 141.732,0 L 141.732,0 0,0 0,141.732 Z" />
    </clipPath>
  </defs>
  <sodipodi:namedview
     pagecolor="#ffffff"
     bordercolor="#666666"
     borderopacity="1"
     objecttolerance="10"
     gridtolerance="10"
     guidetolerance="10"
     inkscape:pageopacity="0"
     inkscape:pageshadow="2"
     inkscape:window-width="958"
     inkscape:window-height="1008"
     id="namedview26"
     showgrid="false"
     fit-margin-top="0"
     fit-margin-left="74.13498"
     fit-margin-right="74.13498"
     fit-margin-bottom="0"
     inkscape:zoom="0.921875"
     inkscape:cx="259.61697"
     inkscape:cy="143.72326"
     inkscape:window-x="2873"
     inkscape:window-y="0"
     inkscape:window-maximized="0"
     inkscape:current-layer="svg2" />
  <title
     id="title4">HTML5 Logo</title>
  <g
     id="g4366"
     transform="matrix(4.5155248,0,0,-4.5155248,437.86502,100.3467)">
    <path
       d="m 0,0 -40.275,0 -40.276,0 7.548,-81.885 32.728,-9.279 32.715,9.279 L 0,0 Z"
       style="fill:#e79f3b;fill-opacity:1;fill-rule:nonzero;stroke:none"
       id="path4368"
       inkscape:connector-curvature="0" />
  </g>
  <g
     id="g4370"
     transform="matrix(4.5155248,0,0,-4.5155248,256.00045,130.46706)">
    <path
       d="M 0,0 0,-77.559 26.502,-70.046 32.956,0 0,0 Z"
       style="fill:#f1cb37;fill-opacity:1;fill-rule:nonzero;stroke:none"
       id="path4372"
       inkscape:connector-curvature="0" />
  </g>
  <g
     id="g4374"
     transform="matrix(4.5155248,0,0,-4.5155248,351.21029,175.83815)">
    <path
       d="m 0,0 -40.763,0 -2.833,-30.66 0.06,0.192 34.626,0 -1.13,-12.969 -11.045,-3.184 -11.214,3.232 -0.673,7.849 -10.18,0 1.455,-15.685 20.612,-5.853 20.612,5.853 2.837,30.781 -36.742,0 0.468,10.264 25.503,0 0.375,-5.875 10.271,0 L 0,0 Z"
       style="fill:#ffffff;fill-opacity:1;fill-rule:nonzero;stroke:none"
       id="path4376"
       inkscape:connector-curvature="0" />
  </g>
  <g
     id="g4378"
     transform="matrix(4.5155248,0,0,-4.5155248,202.32576,336.32035)">
    <path
       d="m 0,0 -10.18,0 1.454,-15.685 20.613,-5.84 0,10.444 L 0.673,-7.849 0,0 Z m 11.887,35.54 -19.679,0 -2.833,-30.66 0.061,0.192 22.451,0 0,10.024 -11.876,0 0.468,10.264 11.408,0 0,10.18 z"
       style="fill:#ebebec;fill-opacity:1;fill-rule:nonzero;stroke:none"
       id="path4380"
       inkscape:connector-curvature="0" />
  </g>
  <g
     id="g4382"
     transform="matrix(4.5155248,0,0,-4.5155248,220.60596,45.805486)">
    <path
       d="m 0,0 -7.163,0 0,-5.144 7.163,0 3.835,0 1.298,0 0,15.288 L 0,10.144 0,0 Z"
       style="fill:#000000;fill-opacity:1;fill-rule:nonzero;stroke:none"
       id="path4384"
       inkscape:connector-curvature="0" />
  </g>
  <g
     id="g4386"
     transform="matrix(4.5155248,0,0,-4.5155248,-63.997633,575.99583)">
    <g
       id="g4388"
       clip-path="url(#clipPath4390)">
      <g
         id="g4394"
         transform="translate(85.8682,127.4814)">
        <path
           d="m 0,0 -12.494,0 0,-5.354 c 1.67,-1.671 2.543,-2.471 4.961,-4.889 -1.414,0 -4.961,-0.005 -4.961,-0.005 l 0,-4.884 12.494,0 0,4.885 -4.99,4.893 4.99,0 L 0,0 Z"
           style="fill:#000000;fill-opacity:1;fill-rule:nonzero;stroke:none"
           id="path4396"
           inkscape:connector-curvature="0" />
      </g>
    </g>
  </g>
</svg>
