<svg height="403.03271mm" viewBox="0 0 404.54468 403.03271" width="404.54468mm" xmlns="http://www.w3.org/2000/svg"><g transform="translate(79.241074 26.035715)"><g stroke="#000" stroke-opacity=".501961" stroke-width="2"><path d="m-42.216575 139.93082 130.007295.002" fill="#f00"/><path d="m-42.703052 173.40079 130.007295.002" fill="#f00"/><path d="m-42.219937 139.92785-.002 64.05183" fill="none"/><path d="m-42.221937 203.97968 130.007295.002" fill="#f00"/><path d="m87.79272 13.113681-.002 126.819139" fill="none"/><path d="m119.81946 13.230314-.002 126.819136" fill="none"/><path d="m87.79272 13.113681 64.05182.0016" fill="#808080"/><path d="m151.88558 172.31777 130.00729.002" fill="#f00"/><g fill="none"><path d="m87.785358 203.98168-.002 126.81914"/><path d="m120.95338 203.73031-.002 126.81914"/><path d="m87.783358 330.80082 64.051822.002"/><path d="m151.83718 203.98369-.002 126.81913"/></g><path d="m151.83718 203.98369 130.00729.002" fill="#f00"/><path d="m281.84647 139.93387-.002 64.05182" fill="none"/><path d="m151.83918 139.93187 130.00729.002" fill="#f00"/><path d="m151.84454 13.112741-.002 126.819129" fill="none"/></g><circle cx="151.8091" cy="12.357953" fill="#00f" r="12.5"/><circle cx="151.27455" cy="44.697563" r="12.5"/><circle cx="152.34901" cy="76.235374" r="12.5"/><circle cx="152.34364" cy="108.84225" r="12.5"/><circle cx="152.33287" cy="140.38005" r="12.5"/><circle cx="185.4958" cy="140.38007" r="12.5"/><circle cx="217.02286" cy="139.84552" r="12.5"/><circle cx="249.62973" cy="139.31097" r="12.5"/><circle cx="281.70209" cy="139.31099" r="12.5"/><circle cx="281.70209" cy="171.91786" r="12.5"/><circle cx="282.23663" cy="204.52473" fill="#ff0" r="12.5"/><circle cx="250.15889" cy="203.9902" r="12.5"/><circle cx="218.09193" cy="203.9902" r="12.5"/><circle cx="186.01959" cy="204.52475" r="12.5"/><circle cx="152.87816" cy="205.05928" r="12.5"/><circle cx="153.41272" cy="237.13162" r="12.5"/><circle cx="153.4127" cy="269.73849" r="12.5"/><circle cx="153.94725" cy="302.3454" r="12.5"/><circle cx="153.94725" cy="334.95227" r="12.5"/><circle cx="121.49153" cy="335.33029" r="12.5"/><circle cx="89.26265" cy="334.95227" fill="#0f0" r="12.5"/><circle cx="88.728111" cy="302.35077" r="12.5"/><circle cx="88.728111" cy="270.26767" r="12.5"/><circle cx="88.193573" cy="237.66617" r="12.5"/><circle cx="88.728111" cy="205.5992" r="12.5"/><circle cx="56.121227" cy="205.05928" r="12.5"/><circle cx="23.519718" cy="205.59383" r="12.5"/><circle cx="-8.552625" cy="205.59383" r="12.5"/><circle cx="-40.630341" cy="206.12836" r="12.5"/><circle cx="-40.090427" cy="173.52148" r="12.5"/><circle cx="-40.630341" cy="141.44376" fill="#f00" r="12.5"/><circle cx="-9.092536" cy="141.44913" r="12.5"/><circle cx="23.519718" cy="141.44914" r="12.5"/><circle cx="55.59206" cy="140.90921" r="12.5"/><circle cx="88.204315" cy="140.9146" r="12.5"/><circle cx="87.664406" cy="108.29697" r="12.5"/><circle cx="87.659035" cy="76.224625" r="12.5"/><circle cx="87.129868" cy="44.163029" r="12.5"/><circle cx="87.659035" cy="12.61985" r="12.5"/><circle cx="119.73675" cy="12.090684" r="12.5"/><g fill="#00f"><circle cx="119.19684" cy="44.697567" r="12.5"/><circle cx="120.27129" cy="75.700829" r="12.5"/><circle cx="119.73675" cy="108.84225" r="12.5"/><circle cx="120.27129" cy="140.38005" r="12.5"/></g><g fill="#ff0"><circle cx="152.87817" cy="172.9977" r="12.5"/><circle cx="186.02496" cy="171.91786" r="12.5"/><circle cx="218.09193" cy="171.91786" r="12.5"/><circle cx="250.16428" cy="172.45239" r="12.5"/></g><circle cx="120.8112" cy="205.5992" fill="#0f0" r="12.5"/><circle cx="121.34036" cy="238.2007" fill="#0f0" r="12.5"/><path d="m-78.241074-25.035715h402.54468v401.03271h-402.54468z" fill="none" stroke="#000" stroke-opacity=".995349" stroke-width="2"/><circle cx="121.88028" cy="269.73315" fill="#0f0" r="12.5"/><circle cx="121.34036" cy="302.87994" fill="#0f0" r="12.5"/><g fill="#f00"><circle cx="88.193573" cy="172.98155" r="12.5"/><circle cx="55.59206" cy="172.97079" r="12.5"/><circle cx="23.508974" cy="173.51071" r="12.5"/><circle cx="-8.547252" cy="173.49995" r="12.5"/><circle cx="-8.557998" cy="45.755901" r="12.5"/><circle cx="-8.023459" cy="14.218094" r="12.5"/><circle cx="-40.101173" cy="14.741888" r="12.5"/><circle cx="-40.090427" cy="46.29044" r="12.5"/></g><g fill="#00f"><circle cx="247.49158" cy="11.540025" r="12.5"/><circle cx="279.58002" cy="12.625223" r="12.5"/><circle cx="279.55856" cy="43.601627" r="12.5"/><circle cx="247.98846" cy="43.617744" r="12.5"/></g><g fill="#ff0"><circle cx="251.7679" cy="301.27631" r="12.5"/><circle cx="283.83487" cy="300.73105" r="12.5"/><circle cx="283.85632" cy="333.33792" r="12.5"/><circle cx="251.2495" cy="333.88855" r="12.5"/></g><g fill="#0f0"><circle cx="-7.478174" cy="336.0267" r="12.5"/><circle cx="-8.012713" cy="303.4252" r="12.5"/><circle cx="-40.651829" cy="302.85312" r="12.5"/><circle cx="-39.52903" cy="335.5029" r="12.5"/></g><circle cx="87.501488" cy="12.478422" r="12.5"/><g fill="#fff" stroke="#000" stroke-width="6.709551"><path d="m469.44643 62.654763 30.9434-17.109234 30.94341-17.109234-.65467 35.352394-.65468 35.352393-30.28873-18.24316z" transform="matrix(.22352534 -.00404285 .00404285 .22352534 167.0974 192.03076)"/><path d="m469.44643 62.654763 30.9434-17.109234 30.94341-17.109234-.65467 35.352394-.65468 35.352393-30.28873-18.24316z" transform="matrix(.00404285 .22352534 -.22352534 .00404285 101.9272 221.01034)"/><path d="m469.44643 62.654763 30.9434-17.109234 30.94341-17.109234-.65467 35.352394-.65468 35.352393-30.28873-18.24316z" transform="matrix(-.22352534 .00404285 -.00404285 -.22352534 73.041453 152.71351)"/><path d="m469.44643 62.654763 30.9434-17.109234 30.94341-17.109234-.65467 35.352394-.65468 35.352393-30.28873-18.24316z" transform="matrix(-.00404285 -.22352534 .22352534 -.00404285 139.82638 125.86884)"/></g></g></svg>