<svg height="765.08" viewBox="0 0 765.08 765.08" width="765.08" xmlns="http://www.w3.org/2000/svg"><g stroke-width="3"><g stroke="#000"><path d="m0 0v765.083"/><path d="m765.083 0h-765.083"/><path d="m765.083 0v765.083"/><path d="m0 765.083h765.083"/></g><g stroke="#888"><path d="m312.9885 34.7765h139.106"/><path d="m312.9885 34.7765v278.212"/><path d="m382.5415 34.7765v278.212"/><path d="m452.0945 34.7765v278.212"/><path d="m34.7765 312.9885h278.212"/><path d="m452.0945 312.9885h278.212"/><path d="m34.7765 312.9885v139.106"/><path d="m730.3065 312.9885v139.106"/><path d="m34.7765 382.5415h278.212"/><path d="m452.0945 382.5415h278.212"/><path d="m34.7765 452.0945h278.212"/><path d="m452.0945 452.0945h278.212"/><path d="m312.9885 452.0945v278.212"/><path d="m382.5415 452.0945v278.212"/><path d="m452.0945 452.0945v278.212"/><path d="m312.9885 730.3065h139.106"/></g></g><circle cx="34.7765" cy="34.7765" fill="#f00" r="27.8212" stroke="#888"/><circle cx="104.3295" cy="34.7765" fill="#f00" r="27.8212" stroke="#888"/><circle cx="312.9885" cy="34.7765" r="27.8212"/><circle cx="382.5415" cy="34.7765" r="27.8212"/><g stroke="#888"><circle cx="452.0945" cy="34.7765" fill="#00f" r="27.8212"/><path d="m438.1839 20.8659h27.8212l-13.9106 27.8212z" fill="#fff" stroke-width="2"/><circle cx="660.7535" cy="34.7765" fill="#00f" r="27.8212"/><circle cx="730.3065" cy="34.7765" fill="#00f" r="27.8212"/><g fill="#f00"><circle cx="34.7765" cy="104.3295" r="27.8212"/><circle cx="104.3295" cy="104.3295" r="27.8212"/></g></g><circle cx="312.9885" cy="104.3295" r="27.8212"/><circle cx="382.5415" cy="104.3295" fill="#00f" r="27.8212" stroke="#888"/><circle cx="452.0945" cy="104.3295" r="27.8212"/><circle cx="660.7535" cy="104.3295" fill="#00f" r="27.8212" stroke="#888"/><circle cx="730.3065" cy="104.3295" fill="#00f" r="27.8212" stroke="#888"/><circle cx="312.9885" cy="173.8825" r="27.8212"/><circle cx="382.5415" cy="173.8825" fill="#00f" r="27.8212" stroke="#888"/><circle cx="452.0945" cy="173.8825" r="27.8212"/><circle cx="312.9885" cy="243.4355" r="27.8212"/><circle cx="382.5415" cy="243.4355" fill="#00f" r="27.8212" stroke="#888"/><circle cx="452.0945" cy="243.4355" r="27.8212"/><circle cx="34.7765" cy="312.9885" fill="#f00" r="27.8212" stroke="#888"/><path d="m20.8659 299.0779v27.8212l27.8212-13.9106z" fill="#fff" stroke="#888" stroke-width="2"/><circle cx="104.3295" cy="312.9885" r="27.8212"/><circle cx="173.8825" cy="312.9885" r="27.8212"/><circle cx="243.4355" cy="312.9885" r="27.8212"/><circle cx="312.9885" cy="312.9885" r="27.8212"/><circle cx="382.5415" cy="312.9885" fill="#00f" r="27.8212" stroke="#888"/><circle cx="452.0945" cy="312.9885" r="27.8212"/><circle cx="521.6475" cy="312.9885" r="27.8212"/><circle cx="591.2005" cy="312.9885" r="27.8212"/><circle cx="660.7535" cy="312.9885" r="27.8212"/><circle cx="730.3065" cy="312.9885" r="27.8212"/><circle cx="34.7765" cy="382.5415" r="27.8212"/><g stroke="#888"><g fill="#f00"><circle cx="104.3295" cy="382.5415" r="27.8212"/><circle cx="173.8825" cy="382.5415" r="27.8212"/><circle cx="243.4355" cy="382.5415" r="27.8212"/><circle cx="312.9885" cy="382.5415" r="27.8212"/></g><g fill="#ff0"><circle cx="452.0945" cy="382.5415" r="27.8212"/><circle cx="521.6475" cy="382.5415" r="27.8212"/><circle cx="591.2005" cy="382.5415" r="27.8212"/><circle cx="660.7535" cy="382.5415" r="27.8212"/></g></g><circle cx="730.3065" cy="382.5415" r="27.8212"/><circle cx="34.7765" cy="452.0945" r="27.8212"/><circle cx="104.3295" cy="452.0945" r="27.8212"/><circle cx="173.8825" cy="452.0945" r="27.8212"/><circle cx="243.4355" cy="452.0945" r="27.8212"/><circle cx="312.9885" cy="452.0945" r="27.8212"/><circle cx="382.5415" cy="452.0945" fill="#0f0" r="27.8212" stroke="#888"/><circle cx="452.0945" cy="452.0945" r="27.8212"/><circle cx="521.6475" cy="452.0945" r="27.8212"/><circle cx="591.2005" cy="452.0945" r="27.8212"/><circle cx="660.7535" cy="452.0945" r="27.8212"/><circle cx="730.3065" cy="452.0945" fill="#ff0" r="27.8212" stroke="#888"/><path d="m716.3959 452.0945 27.8212-13.9106v27.8212z" fill="#fff" stroke="#888" stroke-width="2"/><circle cx="312.9885" cy="521.6475" r="27.8212"/><circle cx="382.5415" cy="521.6475" fill="#0f0" r="27.8212" stroke="#888"/><circle cx="452.0945" cy="521.6475" r="27.8212"/><circle cx="312.9885" cy="591.2005" r="27.8212"/><circle cx="382.5415" cy="591.2005" fill="#0f0" r="27.8212" stroke="#888"/><circle cx="452.0945" cy="591.2005" r="27.8212"/><circle cx="34.7765" cy="660.7535" fill="#0f0" r="27.8212" stroke="#888"/><circle cx="104.3295" cy="660.7535" fill="#0f0" r="27.8212" stroke="#888"/><circle cx="312.9885" cy="660.7535" r="27.8212"/><circle cx="382.5415" cy="660.7535" fill="#0f0" r="27.8212" stroke="#888"/><circle cx="452.0945" cy="660.7535" r="27.8212"/><g stroke="#888"><circle cx="660.7535" cy="660.7535" fill="#ff0" r="27.8212"/><circle cx="730.3065" cy="660.7535" fill="#ff0" r="27.8212"/><g fill="#0f0"><circle cx="34.7765" cy="730.3065" r="27.8212"/><circle cx="104.3295" cy="730.3065" r="27.8212"/><circle cx="312.9885" cy="730.3065" r="27.8212"/></g><path d="m326.8991 744.2171h-27.8212l13.9106-27.8212z" fill="#fff" stroke-width="2"/></g><circle cx="382.5415" cy="730.3065" r="27.8212"/><circle cx="452.0945" cy="730.3065" r="27.8212"/><g fill="#ff0" stroke="#888"><circle cx="660.7535" cy="730.3065" r="27.8212"/><circle cx="730.3065" cy="730.3065" r="27.8212"/></g></svg>