<svg height="259.82083mm" viewBox="0 0 260.17361 259.82083" width="260.17361mm" xmlns="http://www.w3.org/2000/svg"><g stroke-width=".352778" transform="translate(-30.870756 -25.540075)"><path d="m30.870756 25.540075h260.173614v259.820845c-182.5037 0-77.66991 0-260.173614 0 0-102.65834 0-157.16251 0-259.820845z" fill="#fff"/><path d="m30.870756 25.540075h260.173614v259.820845c-86.72454 0-173.44908 0-260.173614 0 0-86.60695 0-173.2139 0-259.820845zm218.016664 158.007835c2.01521-.55046 3.58196-1.86234 4.5827-3.83722.7317-1.44394 3.3035-8.49628 9.3938-25.7595.58183-1.64924 1.21493-3.37995 1.40688-3.84603.20366-.49449.21838-.97804.0353-1.16108-.17252-.17251-1.71115-.26742-3.4192-.21091-3.38933.11213-3.34893.0863-4.02453 2.57219-.81377 2.99426-3.2329 11.71475-3.65311 13.16875-.24273.83991-.59971 1.526-.79329 1.52466-.19357-.001-1.47182-3.86353-2.84055-8.58265l-2.48859-8.58021-3.59765-.10053c-2.89467-.0809-3.59764-.004-3.59764.39284 0 .42797 3.81645 11.32187 7.6097 21.72157 1.36884 3.75284 1.44607 4.48611.58454 5.5497-.84407 1.04201-1.93495 1.54059-3.37081 1.54059-1.42568 0-1.64843.38525-1.64843 2.85108 0 2.94573 1.87614 3.83427 5.82083 2.75675zm-153.818401-8.93937c.930787-.28013 2.286575-.98686 3.01286-1.57052 1.405354-1.12937 1.756932-1.09723 1.756932.16061 0 .43198.251109.88177.558019.99954.81445.31253 5.18672.25164 5.70837-.0795.34809-.22096.42526-3.01721.35278-12.78279l-.0928-12.49996h-3.175-3.175l-.176389 8.64306c-.199499 9.77543-.345274 10.37802-2.815438 11.6382-2.447248 1.2485-4.863638.75575-5.94227-1.21174-.493935-.90097-.619849-2.55409-.767292-10.07368l-.176389-8.99584h-3.175-3.175l.000706 10.05417.000705 10.05417 1.039703 1.87804c1.161863 2.09872 2.375712 3.11033 4.546939 3.78937 1.959822.61293 3.649789.612 5.693685-.003zm70.148851-.20363c1.04804-.39212 2.18985-1.02712 2.53736-1.41111.73281-.80976 1.93358-.93035 1.93358-.1942 0 1.19387 1.04107 1.61283 3.99395 1.6073 3.71942-.007 4.1096-.23918 3.11256-1.85243-.71836-1.16234-.75651-1.6501-.75651-9.67325 0-9.57428-.3026-11.40641-2.1392-12.9518-1.53035-1.28771-4.22002-1.97545-7.72573-1.97545-3.65988 0-6.20741.61019-8.14051 1.94982-1.75985 1.21958-3.24922 3.65646-3.29995 5.39934l-.0377 1.29389 2.46206.10616c3.15855.13618 3.76161-.0381 4.46568-1.29059 1.51758-2.69963 7.71253-2.05527 7.71253.8022 0 1.23439-.67317 1.58787-4.10621 2.15612-7.70422 1.27524-9.20677 1.94633-10.62226 4.74418-1.62816 3.21823-.74986 8.51173 1.70193 10.25756 2.53998 1.80863 5.8181 2.18848 8.90838 1.03226zm-3.11378-4.28053c-1.16951-.63967-1.5875-1.4164-1.5875-2.94996 0-2.07508.92989-2.80458 4.6936-3.68216 1.70216-.3969 3.32681-.72162 3.61034-.72162.79211 0 .67447 3.24428-.17825 4.91576-1.12308 2.20141-4.60021 3.49798-6.53819 2.43798zm-106.009723 3.94324c.432897-.27313.561255-1.66804.705555-7.66752l.176389-7.33363h6.35 6.35l.09569 7.20483c.06093 4.58778.236803 7.37486.484167 7.67292.548361.66073 6.062186.6497 6.612371-.0132.287941-.34695.373864-5.14812.307781-17.19792l-.09168-16.7166h-3.527777-3.527778l-.176389 6.35-.176389 6.35-6.438194.0962-6.438195.0961-.0054-6.09337c-.0028-3.35136-.135301-6.29812-.294065-6.54836-.21027-.33143-1.190809-.42723-3.610572-.35278l-3.32191.10221-.09166 16.91037c-.07206 13.29439.0035 16.97071.352778 17.19252.621944.39483 5.622946.35353 6.265267-.0517zm63.085393-.10998c.23756-.28625.41691-3.56424.48417-8.84899l.10683-8.39433 1.15209-1.02879c.93082-.83119 1.47472-1.02878 2.83192-1.02878 2.08233 0 3.11148.68657 3.58503 2.39165.20049.72188.36541 4.82772.36649 9.12408.002 6.79651.0745 7.83938.55999 8.02569 1.00732.38655 5.28197.23025 5.72142-.2092.304-.304.42333-2.64581.42333-8.3078 0-8.43145.15095-9.29052 1.84037-10.47384.90404-.63321 3.51493-.73015 4.56269-.16941 1.47842.79123 1.71083 2.26635 1.71083 10.85864 0 7.04929.0716 8.11497.55802 8.30161 1.15145.44185 5.34035.22915 5.77385-.29319.31018-.37374.39122-3.09363.30778-10.32949-.11227-9.73638-.12113-9.83746-1.01448-11.57209-1.34744-2.61635-3.26036-3.81602-6.36444-3.99142-2.9727-.16797-4.9557.48157-6.89602 2.25884l-1.32814 1.21652-1.42731-1.39341c-1.77584-1.73367-2.83378-2.13996-5.57223-2.13996-2.44915 0-4.77216.92761-5.89372 2.35343-.83322 1.05928-1.42664.80539-1.42664-.61036v-1.03752h-3.175-3.175v12.67061c0 9.80639.0997 12.71082.44097 12.84853.9818.39617 5.47597.22629 5.8472-.22102zm69.35381.24053c.4829-.18531.55802-1.15652.55802-7.21458 0-8.25684.31013-10.14401 1.93386-11.76774 2.0717-2.0717 5.56103-1.94398 6.90035.25257.63188 1.03631.68826 1.82239.68947 9.61291.001 6.127.11894 8.60193.42465 8.90764.25118.25117 1.46039.42333 2.97341.42333 3.943 0 3.75462.55759 3.56551-10.5535-.17968-10.5573-.32788-11.35143-2.54862-13.6567-1.62649-1.68839-3.21384-2.24328-6.42551-2.24616-2.51354-.002-3.57561.3762-5.63222 2.007-.80876.64131-1.55277 1.16603-1.65334 1.16603s-.2326-.51594-.2934-1.14653l-.11055-1.14653h-3.175-3.175l-.0928 12.30551c-.0663 8.78813.0217 12.44347.30778 12.78819.41378.49858 4.63991.69585 5.75341.26856zm29.75497-.0795c.34809-.22096.42526-3.01721.35277-12.78279l-.0928-12.49996h-3.175-3.175l-.0933 12.34723c-.0854 11.29464-.042 12.38481.5084 12.78819.66521.48749 4.96328.59908 5.67494.14733zm18.00536-.008c.31894-.2023.42673-.98215.35278-2.55224l-.10648-2.26094-1.41111-.18875c-.77611-.10382-1.60955-.31162-1.85208-.46179-.33047-.20462-.44098-2.15908-.44098-7.7992 0-8.37167-.13104-7.95442 2.4983-7.95442h1.38226v-2.11667-2.11667h-1.38226c-2.40463 0-2.4983-.11792-2.4983-3.14531 0-3.76121-.20058-3.96866-3.71135-3.83835l-2.81504.1045-.1036 2.98103c-.057 1.63956-.27486 3.18737-.48417 3.43958-.20931.2522-.99612.45855-1.74848.45855h-1.36791v2.11667 2.11667h1.08152c.59484 0 1.38859.16433 1.76389.36519.64664.34607.68237.82595.68237 9.16665v8.80147l1.01125 1.13179c.55619.62249 1.62776 1.32272 2.38125 1.55608 1.58989.49238 6.09526.62296 6.76814.19615zm-17.99334-28.57397c.32435-.20574.42706-1.05159.35278-2.90501l-.10481-2.61475h-3.175-3.175l-.10613 2.46106c-.0868 2.01301.006 2.54287.5084 2.91042.68329.49963 4.97007.61116 5.69976.14828zm-121.918696-12.79507c3.336092-.70611 5.628226-2.34277 7.103836-5.07238.73918-1.36736.76627-1.84213.87349-15.31113.0891-11.18823.0203-13.957359-.35278-14.193907-.72315-.45858-5.377937-.364349-5.860932.118646-.232834.232833-.423334.788458-.423334 1.234722 0 1.013129-.401062 1.030779-1.268239.05583-1.000563-1.124909-4.002765-2.412079-5.635093-2.415998-5.628516-.01351-9.728489 4.194357-10.799565 11.083777-1.036387 6.66632 1.771693 12.83235 6.680394 14.66893 3.368644 1.26037 8.020851.68547 9.566392-1.18219.266294-.32179.724905-.58507 1.019136-.58507.438344 0 .501237.372.348209 2.0596-.102714 1.13278-.401105 2.40283-.663084 2.82233-.745476 1.19369-2.475329 1.82085-5.022346 1.82085-2.181528 0-2.388746-.0726-3.564604-1.24843l-1.248428-1.24843-3.04758.1019c-3.800408.12707-4.12273.45728-2.880014 2.95048 1.049189 2.10494 3.032439 3.5907 5.632732 4.21979 2.383247.57659 7.105622.63631 9.54181.12068zm-6.985067-15.83906c-1.693852-1.08537-2.437723-3.14531-2.415727-6.68967.02184-3.51587.560955-4.82722 2.536514-6.16965 2.647718-1.79917 5.831368-.82044 7.435321 2.28579.710442 1.37584.801148 1.98238.688372 4.60311-.145814 3.38846-.853768 4.98882-2.683224 6.06557-1.437256.84591-4.16547.79923-5.561256-.0952zm30.233123 7.01379c.65954-.22082 1.67542-.74801 2.2575-1.17153 1.81969-1.32397 1.88089-1.329 2.46348-.2024l.55325 1.06987h3.32151c1.82683 0 3.41685-.15427 3.53338-.34281.11653-.18855-.0725-.77623-.42015-1.30594-.55476-.8454-.65359-2.10802-.80841-10.32872-.16228-8.61615-.23535-9.4785-.91314-10.7767-.88193-1.689195-2.61859-2.753307-5.48687-3.361997-2.53664-.538311-6.86021-.275223-9.25451.563135-2.19764.769501-4.52636 3.027872-5.32777 5.166812-.94123 2.51213-.7117 2.74733 2.68096 2.74733h2.88749l1.34157-1.45319 1.34157-1.45318 2.28844.14572c2.53051.16113 3.73948.89209 3.73948 2.26096 0 1.31626-.8205 1.76265-4.10801 2.23497-7.3001 1.04882-9.50785 2.14616-10.86821 5.40196-1.14014 2.72874-.50763 7.05285 1.32292 9.04407 1.79731 1.95506 6.34643 2.8026 9.45552 1.76164zm-2.9371-4.36949c-1.20936-.67172-1.68456-1.54958-1.68456-3.11196 0-1.66889 1.47083-2.87641 4.14161-3.40016 1.1176-.21917 2.45898-.56355 2.98084-.76528 1.36519-.52774 1.69699-.14395 1.69699 1.96287 0 1.35311-.2189 2.19211-.79495 3.04691-1.47193 2.1842-4.52445 3.276-6.33993 2.26762zm78.92516 3.75652c3.35208-1.49609 5.09337-3.99884 5.10753-7.34104.0193-4.54396-1.65081-5.95434-9.53663-8.05382-5.21665-1.38885-5.84166-1.65583-6.14989-2.62698-.55568-1.7508 1.53663-3.03185 4.48861-2.7482 1.61957.15562 1.98848.35032 3.09234 1.63199l1.25339 1.45529h2.9008c2.86881 0 2.90079-.01 2.90079-.89327 0-2.19631-1.91043-4.970211-4.23333-6.146697-5.07394-2.569813-13.08218-1.358279-15.62187 2.363367-2.58167 3.78317-1.85579 8.43979 1.63444 10.4852.81036.47491 3.37624 1.34919 5.70194 1.94286 5.26191 1.34317 6.08961 1.67377 6.36533 2.5425.63491 2.00041-1.06407 3.30523-4.25345 3.26666-2.36096-.0285-3.72886-.75643-4.609-2.4525l-.72999-1.40673h-3.15134-3.15134l.0767 1.31435c.14437 2.47544 2.04052 5.12548 4.58619 6.40962 1.96154.98948 3.68402 1.24585 7.68438 1.14372 3.1047-.0793 4.23322-.25646 5.64445-.88632zm-141.025015-.13206c.19188-.24254.780546-1.75235 1.308143-3.35515.576608-1.7517 1.219404-3.05341 1.611401-3.2632.70075-.37503 10.502508-.49056 11.429816-.13472.328701.12614.943176 1.46858 1.493647 3.2632.514368 1.67689 1.08924 3.24733 1.277497 3.48987.400642.51615 7.151518.63238 7.462939.12849.106218-.17187-1.959945-6.40281-4.591473-13.84653-2.631528-7.44373-5.247887-14.865732-5.814127-16.493347-.56624-1.627618-1.208895-3.17543-1.428126-3.439583-.5582-.672596-7.467007-.681676-8.02399-.01055-.214415.258356-2.308444 5.854294-4.653393 12.43542-2.344953 6.58112-4.967086 13.91629-5.826965 16.30036-.859874 2.38407-1.563412 4.56688-1.563412 4.85069 0 .41801.661825.51602 3.484584.51602 2.366412 0 3.59653-.1415 3.833459-.44097zm5.117374-12.84545c-.63765-.25729-.615675-.36251 1.362918-6.52623 1.081659-3.36958 1.962485-5.566614 2.20001-5.48744.54506.181688 3.913089 10.97948 3.643683 11.68154-.178777.46589-.795171.56085-3.491374.53792-1.800846-.0153-3.472703-.10792-3.715237-.20579zm83.436531.61007c.0725-9.76557-.005-12.561824-.35278-12.78279-.70933-.450271-5.36646-.3469-5.84306.129695-.31296.312964-.42333 3.608785-.42333 12.641205 0 6.71983.11154 12.32942.24788 12.46575.13633.13633 1.60477.20247 3.26319.14699l3.01532-.10089zm12.92225 12.11833c.11778-.30691.21762-3.91847.22188-8.02569.007-6.60018.0864-7.641.68505-8.9597 1.50397-3.31309 6.12493-3.99623 8.03351-1.18763.54032.79512.64554 2.07769.7987 9.73521l.17638 8.81944h3.175 3.175l.0942-9.32594c.10526-10.4238-.13611-12.09417-2.06514-14.291215-1.26008-1.435143-4.24311-2.664788-6.46459-2.664788-2.09415 0-4.26221.826957-6.08588 2.321327l-1.52996 1.253686v-1.038756c0-1.573936-.64297-1.874633-3.75892-1.757948l-2.76747.103635-.0929 12.345219c-.0511 6.78986-.0164 12.54455.0771 12.78819.11778.30695 1.08262.44298 3.14192.44298 2.38459 0 3.01426-.11028 3.18607-.55802zm61.52756-1.8793c.12045-2.5575-.091-2.84058-2.12823-2.84895-1.06972-.004-1.3527-.15404-1.51111-.79915-.1072-.43656-.14991-3.96875-.0949-7.8493l.1-7.05556 1.76389-.17639 1.76389-.17639v-2.11666-2.116669l-1.85208-.106631-1.85209-.10663-.005-2.539203c-.008-4.264371.0731-4.169855-3.47934-4.051593l-3.04226.101279-.17638 3.175-.17639 3.175-1.41111.106193c-1.63166.122788-2.29306.804433-2.29306 2.363254 0 1.55882.6614 2.24046 2.29306 2.36325l1.41111.10619.17639 9.25133c.17235 9.03993.19473 9.26967.97917 10.05417 1.25703 1.25712 2.81352 1.64945 6.25277 1.5761l3.175-.0677zm-74.43779-28.928819c.0743-1.853421-.0284-2.699265-.35278-2.905012-.71862-.45586-5.37417-.358645-5.85508.122262-.45286.452861-.59956 4.927286-.17545 5.351395.13633.136331 1.60477.202477 3.26319.146992l3.01532-.100887zm-75.160365-19.581954c5.382305-1.432857 9.170334-5.136738 10.273128-10.044918.442384-1.968895.04001-2.20588-3.532935-2.080838l-2.943472.103014-.966579 1.940278c-1.650535 3.313229-4.393392 4.889126-7.834486 4.501265-5.055101-.569786-7.907094-5.490549-7.515856-12.967688.383176-7.32311 3.250611-10.936355 8.678975-10.936355 3.399349 0 5.193062 1.108763 6.726234 4.157751l.760261 1.511914 3.42598-.100803 3.42598-.100806-.121641-1.234723c-.193523-1.964372-1.823614-4.877982-3.645595-6.516098-2.855521-2.567358-6.222781-3.72254-10.802211-3.705832-9.814062.0358-15.661502 6.732545-15.702382 17.983042-.03454 9.506334 4.037775 15.592792 11.670796 17.443104 2.645836.641375 5.80391.65996 8.103803.04769zm23.861857.08221c.798622-.230262 2.115643-.865262 2.926715-1.411111 1.782462-1.199596 2.108969-1.226298 2.429654-.198702.370784 1.18812.758176 1.311631 4.132439 1.317515 3.41589.006 4.103-.429277 2.85393-1.80775-.6009-.663155-.67597-1.588064-.83653-10.305612-.15165-8.233548-.26294-9.735355-.79338-10.705363-.86814-1.587564-2.594177-2.766883-4.804457-3.282647-2.235418-.521632-7.981311-.28726-10.100775.412005-1.907555.629353-4.51593 3.249151-5.285398 5.308548-.944506 2.527871-.721173 2.747331 2.795824 2.747331 2.970565 0 3.006051-.01051 3.542499-1.047877.747278-1.445077 1.529567-1.774345 4.21555-1.774345 2.578251 0 3.727358.69361 3.727358 2.249861 0 1.336957-.819972 1.701998-5.395655 2.402071-4.749158.72662-7.564155 1.831259-8.652986 3.395543-2.25679 3.242253-1.861115 8.705525.80174 11.069983 2.059661 1.828857 5.470903 2.487616 8.443472 1.63055zm-2.984818-5.19865c-1.318641-1.318641-1.415164-3.203014-.225033-4.393149.705153-.705153 5.998259-2.338899 7.572308-2.33723.301748.000317.440556.640891.439653 2.028938-.0018 2.513316-.838832 4.015906-2.793009 5.012852-2.063948 1.05295-3.733684.948828-4.993919-.311411zm48.790366 5.248275c.72304-.200808 2.0341-.914298 2.91346-1.585535.87937-.671237 1.67686-1.220431 1.77219-1.220431.0953 0 .17334.459267.17334 1.020589 0 .605212.22712 1.107744.55802 1.234723.81355.31219 5.18646.251802 5.70725-.07881.3494-.221812.42483-3.898127.35278-17.192516l-.0917-16.910375h-3.175-3.175l-.0976 5.203472c-.062 3.304604-.23151 5.203473-.46451 5.203473-.20179 0-.87224-.371504-1.48988-.825564-1.91302-1.406352-3.22817-1.748723-6.02732-1.569085-3.07523.197355-5.35401 1.387599-7.1487 3.733878-3.27367 4.279822-3.89518 11.98263-1.40054 17.357993 2.03126 4.376907 7.15032 6.862075 11.59319 5.628189zm-3.11547-5.593165c-.60241-.367344-1.47554-1.27956-1.94028-2.027153-.76368-1.228467-.84498-1.749629-.84498-5.416204 0-3.519936.10401-4.25147.78576-5.526543 2.10551-3.937885 6.55461-4.126749 8.86171-.376174 1.50632 2.448768 1.73642 7.040736.52248 10.426796-1.09761 3.061568-4.77035 4.51346-7.38469 2.919278zm37.27318 4.948668c6.65038-2.542219 7.53377-11.373947 1.39295-13.926083-.6791-.282233-3.2191-1.021595-5.64445-1.64302-5.0527-1.294617-5.99722-1.767826-5.99722-3.004665 0-2.980676 5.83493-3.468638 7.63733-.638697.92015 1.444734 1.10484 1.517967 3.82795 1.517967 3.31879 0 3.58278-.195812 3.01206-2.234201-.58108-2.07541-2.40068-4.180597-4.51231-5.220508-1.47504-.726412-2.18239-.824763-5.93189-.824763-4.03966 0-4.36346.05434-6.33825 1.063738-2.71661 1.388565-4.11105 3.502868-4.33288 6.569661-.34667 4.792662 1.96189 6.752505 10.14692 8.614149 3.45064.784832 4.85921 1.407104 5.13223 2.267292.59233 1.866276-1.18925 3.18146-4.3083 3.180447-2.27466-.000705-4.00355-.921212-4.80289-2.557092l-.64641-1.322917h-3.14595c-3.02786 0-3.14587.02981-3.14397.79375.006 2.438647 2.05437 5.663534 4.35496 6.856455 3.2066 1.662709 9.63753 1.908574 13.30012.508487zm-56.10983-7.453135c.15374-6.610696.26181-7.72582.84157-8.683435.9321-1.539607 2.46972-2.338747 4.95867-2.577137l2.13726-.204706.10054-3.615973.10053-3.615972h-1.4375c-1.7059 0-3.66408.934724-5.07936 2.424592-1.21339 1.277345-1.62171 1.146828-1.62171-.518371v-1.227141l-3.26319.10143-3.2632.101435-.0928 12.305503c-.0677 8.979912.0185 12.439573.3189 12.801586.30584.368515 1.14614.469956 3.26781.394494l2.85611-.101583z"/></g></svg>