<svg enable-background="new 0 0 7127.6 2890" height="2890.0081" viewBox="0 0 1443.0108 2890.0081" width="1443.0109" xmlns="http://www.w3.org/2000/svg" xmlns:xlink="http://www.w3.org/1999/xlink"><linearGradient id="a" gradientTransform="matrix(.4226 -.9063 .9063 .4226 5117.8774 -2859.9262)" gradientUnits="userSpaceOnUse" x1="-4516.6152" x2="-4108.4111" y1="-2338.7222" y2="-1861.3982"><stop offset="0" stop-color="#f69923"/><stop offset=".3123" stop-color="#f79a23"/><stop offset=".8383" stop-color="#e97826"/></linearGradient><linearGradient id="b"><stop offset=".3233" stop-color="#9e2064"/><stop offset=".6302" stop-color="#c92037"/><stop offset=".7514" stop-color="#cd2335"/><stop offset="1" stop-color="#e97826"/></linearGradient><linearGradient id="c" gradientTransform="matrix(.4226 -.9063 .9063 .4226 5117.8774 -2859.9262)" gradientUnits="userSpaceOnUse" x1="-7537.7339" x2="-4625.4141" xlink:href="#b" y1="-2391.4075" y2="-2391.4075"/><linearGradient id="d"><stop offset="0" stop-color="#282662"/><stop offset=".0954839" stop-color="#662e8d"/><stop offset=".7882" stop-color="#9f2064"/><stop offset=".9487" stop-color="#cd2032"/></linearGradient><linearGradient id="e" gradientTransform="matrix(.4226 -.9063 .9063 .4226 5117.8774 -2859.9262)" gradientUnits="userSpaceOnUse" x1="-7186.1777" x2="-5450.7183" xlink:href="#d" y1="-2099.3059" y2="-2099.3059"/><linearGradient id="f" gradientTransform="matrix(.4226 -.9063 .9063 .4226 5117.8774 -2859.9262)" gradientUnits="userSpaceOnUse" x1="-7374.1626" x2="-4461.8428" xlink:href="#b" y1="-2418.5454" y2="-2418.5454"/><linearGradient id="g" gradientTransform="matrix(.4226 -.9063 .9063 .4226 5117.8774 -2859.9262)" gradientUnits="userSpaceOnUse" x1="-7161.7642" x2="-5631.2524" xlink:href="#d" y1="-2379.1431" y2="-2379.1431"/><linearGradient id="h" gradientTransform="matrix(.4226 -.9063 .9063 .4226 5117.8774 -2859.9262)" gradientUnits="userSpaceOnUse" x1="-7374.1626" x2="-4461.8428" xlink:href="#b" y1="-2117.1309" y2="-2117.1309"/><linearGradient id="i" gradientTransform="matrix(.4226 -.9063 .9063 .4226 5117.8774 -2859.9262)" gradientUnits="userSpaceOnUse" x1="-7554.8232" x2="-4642.5034" xlink:href="#b" y1="-2132.0981" y2="-2132.0981"/><linearGradient id="j" gradientTransform="matrix(.4226 -.9063 .9063 .4226 5117.8774 -2859.9262)" gradientUnits="userSpaceOnUse" x1="-7374.1626" x2="-4461.8433" xlink:href="#b" y1="-2027.484" y2="-2027.484"/><linearGradient id="k" gradientTransform="matrix(.4226 -.9063 .9063 .4226 5117.8774 -2859.9262)" gradientUnits="userSpaceOnUse" x1="-7374.1626" x2="-4461.8433" xlink:href="#b" y1="-2037.7417" y2="-2037.7417"/><path d="m1230.1 13.708128c-45.3 26.8-120.6 102.500002-210.5 212.300002l82.6 155.9c58-82.9 116.9-157.5 176.3-221.2 4.6-5.1 7-7.5 7-7.5-2.3 2.5-4.6 5-7 7.5-19.2 21.2-77.5 89.2-165.5 224.4 84.7-4.2 214.9-21.6 321.1-39.7 31.6-177-31-258.000002-31-258.000002s-79.7-128.8-173-73.7z" fill="url(#a)"/><g fill="none"><path d="m1090.2 903.10813 1.8-.3-11.9 1.3c-.7.3-1.4.7-2.1 1 4.1-.7 8.2-1.4 12.2-2z"/><path d="m1005.9 1182.3081c-6.7 1.5-13.7 2.7-20.7 3.7 7.1-1 14-2.2 20.7-3.7z"/><path d="m432.9 1808.8081c.9-2.3 1.8-4.7 2.6-7 18.2-48 36.2-94.7 54-140.1 20-51 39.8-100.4 59.3-148.3 20.6-50.4 40.9-99.2 60.9-146.3 21-49.4 41.7-97 62-142.8 16.5-37.3 32.8-73.4 48.9-108.3 5.4-11.7 10.7-23.2 16-34.6 10.5-22.7 21-44.8 31.3-66.5 9.5-19.99997 19-39.59997 28.3-58.79997 3.1-6.4 6.2-12.8 9.3-19.1.5-1 1-2 1.5-3.1l-10.2 1.1-8-15.9c-.8 1.6-1.6 3.1-2.4 4.6-14.5 28.8-28.9 57.9-43.1 87.19997-8.2 16.9-16.4 34-24.6 51-22.6 47.4-44.8 95.2-66.6 143.3-22.1 48.6-43.7 97.5-64.9 146.5-20.8 48.1-41.3 96.2-61.2 144.2-20 48-39.5 95.7-58.5 143.2-19.9 49.5-39.2 98.7-58 147.2-4.2 10.9-8.5 21.9-12.7 32.8-15 39.2-29.7 77.8-44 116l12.7 25.1 11.4-1.2c.4-1.1.8-2.3 1.3-3.4 18.5-50.2 36.7-99.2 54.7-146.8z"/><path d="m980 1186.8081c.1 0 .1 0 .1-.1 0 .1 0 .1-.1.1z"/></g><g fill="#be202e"><path d="m952.6 1323.0081c-10.6 1.9-21.4 3.8-32.5 5.7-.1 0-.1.1-.2.1 5.6-.8 11.2-1.7 16.6-2.6 5.5-1 10.8-2.1 16.1-3.2z"/><path d="m952.6 1323.0081c-10.6 1.9-21.4 3.8-32.5 5.7-.1 0-.1.1-.2.1 5.6-.8 11.2-1.7 16.6-2.6 5.5-1 10.8-2.1 16.1-3.2z" opacity=".35"/><path d="m980.3 1186.7081c-.1 0-.1 0 0 0-.1.1-.2.1-.2.1 1.8-.2 3.5-.5 5.2-.8 7-1 13.9-2.2 20.7-3.7-8.5 1.5-17 2.9-25.7 4.4z"/><path d="m980.3 1186.7081c-.1 0-.1 0 0 0-.1.1-.2.1-.2.1 1.8-.2 3.5-.5 5.2-.8 7-1 13.9-2.2 20.7-3.7-8.5 1.5-17 2.9-25.7 4.4z" opacity=".35"/></g><path d="m858.6 784.70813c25.1-46.9 50.5-92.8 76.2-137.4 26.7-46.4 53.7-91.3 80.9-134.7 1.6-2.6 3.2-5.2 4.8-7.7 27-42.7 54.2-83.7 81.6-122.9l-82.6-156c-6.2 7.6-12.5 15.3-18.8 23.2-23.8 29.7-48.6 61.6-73.9 95.5-28.6 38.2-58 78.9-87.8 121.7-27.6 39.5-55.5 80.9-83.5 123.7-23.8 36.5-47.7 74-71.4 112.5-.9 1.4-1.8 2.9-2.6 4.3l107.5 212.3c22.8-45.6 46.1-90.5 69.6-134.5z" fill="url(#c)"/><path d="m369 1981.0081c-14.2 39.1-28.5 78.9-42.9 119.6-.2.6-.4 1.2-.6 1.8-2 5.7-4.1 11.5-6.1 17.2-9.7 27.4-18 52.1-37.3 108.2 31.7 14.5 57.1 52.5 81.1 95.6-2.6-44.7-21-86.6-56.2-119.1 156.1 7 290.6-32.4 360.1-146.6 6.2-10.2 11.9-20.9 17-32.2-31.6 40.1-70.8 57.1-144.5 53-.2.1-.3.1-.5.2.2-.1.3-.1.5-.2 108.6-48.6 163.1-95.3 211.2-172.6 11.4-18.3 22.5-38.4 33.8-60.6-94.9 97.5-205 125.3-320.9 104.2l-86.9 9.5c-2.4 7.3-5.1 14.6-7.8 22z" fill="url(#e)"/><path d="m409.6 1786.3081c18.8-48.5 38.1-97.7 58-147.2 19-47.4 38.5-95.2 58.5-143.2s40.4-96.1 61.2-144.2c21.2-49 42.9-97.8 64.9-146.5 21.8-48.1 44-95.9 66.6-143.3 8.1-17.1 16.3-34.1 24.6-51 14.2-29.29997 28.6-58.39997 43.1-87.19997.8-1.6 1.6-3.1 2.4-4.6l-107.5-212.3c-1.8 2.9-3.5 5.8-5.3 8.6-25.1 40.9-50 82.7-74.4 125.4-24.7 43.1-49 87.1-72.7 131.7-20 37.59997-39.6 75.59997-58.6 113.89997-3.8 7.8-7.6 15.5-11.3 23.2-23.4 48.2-44.6 94.8-63.7 139.5-21.7 50.7-40.7 99.2-57.5 145.1-11 30.2-21 59.4-30.1 87.4-7.5 24-14.7 47.9-21.5 71.8-16 56.3-29.9 112.4-41.2 168.3l107.9 213.4c14.3-38.1 28.9-76.8 44-116 4.1-10.9 8.4-21.8 12.6-32.8z" fill="url(#f)"/><path d="m243.5 1729.4081c-13.6 68.2-23.2 136.2-28 203.8-.2 2.4-.4 4.7-.5 7.1-33.7-54-124-106.8-123.8-106.2 64.6 93.7 113.7 186.7 120.9 278-34.6 7.1-82-3.2-136.8-23.3 57.1 52.5 100 67 116.7 70.9-52.5 3.3-107.1 39.3-162.1 80.8 80.5-32.8 145.5-45.8 192.1-35.3-73.9 209-147.9 439.8-222 684.8 22.7-6.7 36.2-21.9 43.9-42.6 13.2-44.4 100.8-335.6 238-718.2 3.9-10.9 7.8-21.8 11.8-32.9 1.1-3 2.2-6.1 3.3-9.2 14.5-40.1 29.5-81.1 45.1-122.9 3.5-9.5 7.1-19 10.7-28.6.1-.2.1-.4.2-.6l-107.9-213.2c-.5 2.6-1.1 5.1-1.6 7.6z" fill="url(#g)"/><path d="m805.6 937.00813c-3.1 6.3-6.2 12.7-9.3 19.1-9.3 19.2-18.8 38.8-28.3 58.79997-10.3 21.7-20.7 43.9-31.3 66.5-5.3 11.4-10.6 22.9-16 34.6-16.1 35-32.4 71.1-48.9 108.3-20.3 45.8-41 93.4-62 142.8-20 47.1-40.3 95.9-60.9 146.3-19.5 47.9-39.3 97.3-59.3 148.3-17.8 45.4-35.9 92.1-54 140.1-.9 2.3-1.8 4.7-2.6 7-18 47.6-36.2 96.6-54.6 146.8-.4 1.1-.8 2.3-1.3 3.4l86.9-9.5c-1.7-.3-3.5-.5-5.2-.9 103.9-13 242.1-90.6 331.4-186.5 41.1-44.2 78.5-96.3 113-157.3 25.7-45.4 49.8-95.8 72.8-151.5 20.1-48.7 39.4-101.4 58-158.6-23.9 12.6-51.2 21.8-81.4 28.2-5.3 1.1-10.7 2.2-16.1 3.1-5.5 1-11 1.8-16.6 2.6.1 0 .1-.1.2-.1 96.9-37.3 158-109.2 202.4-197.4-25.5 17.4-66.9 40.1-116.6 51.1-6.7 1.5-13.7 2.7-20.7 3.7-1.7.3-3.5.6-5.2.8.1 0 .1 0 .1-.1h.1c33.6-14.1 62-29.8 86.6-48.4 5.3-4 10.4-8.1 15.3-12.3 7.5-6.5 14.7-13.3 21.5-20.5 4.4-4.6 8.6-9.3 12.7-14.2 9.6-11.5 18.7-23.9 27.1-37.3 2.6-4.1 5.1-8.3 7.6-12.6 3.2-6.2 6.3-12.3 9.3-18.3 13.5-27.19997 24.4-51.49997 33-72.79997 4.3-10.6 8.1-20.5 11.3-29.7 1.3-3.7 2.5-7.2 3.7-10.6 3.4-10.2 6.2-19.3 8.4-27.3 3.3-12 5.3-21.5 6.4-28.4-3.3 2.6-7.1 5.2-11.3 7.7-29.3 17.5-79.5 33.4-119.9 40.8l79.8-8.8-79.8 8.8c-.6.1-1.2.2-1.8.3-4 .7-8.1 1.3-12.2 2 .7-.3 1.4-.7 2.1-1l-273 29.9c-.4 1.1-.9 2.1-1.4 3.1z" fill="url(#h)"/><path d="m1112.9 385.10813c-24.3 37.3-50.8 79.6-79.4 127.5-1.5 2.5-3 5.1-4.5 7.6-24.6 41.5-50.8 87.1-78.3 137-23.8 43.1-48.5 89.3-74.3 139-22.4 43.3-45.6 89.2-69.4 137.8l273-29.9c79.5-36.6 115.1-69.7 149.6-117.6 9.2-13.2 18.4-27 27.5-41.3 28-43.8 55.6-92 80.1-139.9 23.7-46.3 44.7-92.2 60.7-133.5 10.2-26.3 18.4-50.8 24.1-72.3 5-19 8.9-36.9 11.9-54.1-106 18.1-236.3 35.5-321 39.7z" fill="url(#i)"/><path d="m936.5 1326.1081c-5.5 1-11 1.8-16.6 2.6 5.6-.7 11.1-1.6 16.6-2.6z" fill="#be202e"/><path d="m936.5 1326.1081c-5.5 1-11 1.8-16.6 2.6 5.6-.7 11.1-1.6 16.6-2.6z" fill="#be202e" opacity=".35"/><path d="m936.5 1326.1081c-5.5 1-11 1.8-16.6 2.6 5.6-.7 11.1-1.6 16.6-2.6z" fill="url(#j)"/><path d="m980 1186.8081c1.8-.2 3.5-.5 5.2-.8-1.7.3-3.4.6-5.2.8z" fill="#be202e"/><path d="m980 1186.8081c1.8-.2 3.5-.5 5.2-.8-1.7.3-3.4.6-5.2.8z" fill="#be202e" opacity=".35"/><path d="m980 1186.8081c1.8-.2 3.5-.5 5.2-.8-1.7.3-3.4.6-5.2.8z" fill="url(#k)"/></svg>