<svg height="512" viewBox="0 0 512 512.00001" width="512" xmlns="http://www.w3.org/2000/svg" xmlns:xlink="http://www.w3.org/1999/xlink"><clipPath id="a"><path d="m0 141.732h141.732v-141.732h-141.732z"/></clipPath><path d="m0 0h-40.275-40.276l7.548-81.885 32.728-9.279 32.715 9.279z" fill="#e79f3b" transform="matrix(4.5155248 0 0 -4.5155248 437.86502 100.3467)"/><path d="m0 0v-77.559l26.502 7.513 6.454 70.046z" fill="#f1cb37" transform="matrix(4.5155248 0 0 -4.5155248 256.00045 130.46706)"/><path d="m0 0h-40.763l-2.833-30.66.06.192h34.626l-1.13-12.969-11.045-3.184-11.214 3.232-.673 7.849h-10.18l1.455-15.685 20.612-5.853 20.612 5.853 2.837 30.781h-36.742l.468 10.264h25.503l.375-5.875h10.271z" fill="#fff" transform="matrix(4.5155248 0 0 -4.5155248 351.21029 175.83815)"/><path d="m0 0h-10.18l1.454-15.685 20.613-5.84v10.444l-11.214 3.232zm11.887 35.54h-19.679l-2.833-30.66.061.192h22.451v10.024h-11.876l.468 10.264h11.408z" fill="#ebebec" transform="matrix(4.5155248 0 0 -4.5155248 202.32576 336.32035)"/><path d="m0 0h-7.163v-5.144h7.163 3.835 1.298v15.288h-5.133z" transform="matrix(4.5155248 0 0 -4.5155248 220.60596 45.805486)"/><g clip-path="url(#a)" transform="matrix(4.5155248 0 0 -4.5155248 -63.997633 575.99583)"><path d="m0 0h-12.494v-5.354c1.67-1.671 2.543-2.471 4.961-4.889-1.414 0-4.961-.005-4.961-.005v-4.884h12.494v4.885l-4.99 4.893h4.99z" transform="translate(85.8682 127.4814)"/></g></svg>