<svg height="160.248" width="255.55165" xmlns="http://www.w3.org/2000/svg"><g transform="matrix(2 0 0 2 -152.78915 -906.72208)"><path d="m99.973575 479.48404h14.204005c4.1693.0354 7.1903 1.23669 9.063 3.604 1.87263 2.36735 2.49096 5.60035 1.855 9.699-.24737 1.87268-.79504 3.71001-1.643 5.512-.8127 1.80201-1.94337 3.42734-3.392 4.876-1.7667 1.83733-3.65703 3.00333-5.671 3.498-2.01403.49467-4.09869.742-6.254.742h-6.36l-2.014005 10.07h-7.367zm6.201005 6.042-3.18 15.9c.21198.0353.42398.053.636.053h.742c3.39198.0353 6.21864-.30033 8.48-1.007 2.2613-.74199 3.78064-3.32132 4.558-7.738.63597-3.70998-.00003-5.84765-1.908-6.413-1.87269-.56531-4.22236-.83031-7.049-.795-.42402.0353-.83035.053-1.219.053-.35335.00002-.72435.00002-1.113 0z"/><path d="m133.48756 469.36104h7.31399l-2.06701 10.123h6.57201c3.60397.0707 6.28929.81269 8.056 2.226 1.80197 1.41336 2.33198 4.09869 1.59002 8.056l-3.55099 17.649h-7.42l3.392-16.854c.35328-1.76665.2473-3.02098-.318-3.763-.56536-.74198-1.78435-1.11298-3.65702-1.113l-5.88302-.053-4.346 21.783h-7.31396l7.63196-38.054"/><path d="m162.80658 479.48404h14.204c4.16928.0354 7.1903 1.23669 9.06299 3.604 1.87263 2.36735 2.49095 5.60035 1.85499 9.699-.24737 1.87268-.79503 3.71001-1.643 5.512-.8127 1.80201-1.94337 3.42734-3.392 4.876-1.76669 1.83733-3.65703 3.00333-5.67099 3.498-2.01402.49467-4.0987.742-6.254.742h-6.36001l-2.014 10.07h-7.36699zm6.20098 6.042-3.18 15.9c.21199.0353.42399.053.636.053h.742c3.39198.0353 6.21865-.30033 8.48-1.007 2.26131-.74199 3.78064-3.32132 4.558-7.738.63597-3.70998-.00003-5.84765-1.908-6.413-1.87269-.56531-4.22236-.83031-7.049-.795-.42402.0353-.83035.053-1.219.053-.35335.00002-.72435.00002-1.113 0z"/></g></svg>